<?xml version="1.0" encoding="UTF-8"?>
<svg width="570px" height="70px" viewBox="0 0 570 70" version="1.1" xmlns="http://www.w3.org/2000/svg" xmlns:xlink="http://www.w3.org/1999/xlink">
    <!-- Generator: Sketch 41.2 (35397) - http://www.bohemiancoding.com/sketch -->
    <title>Group</title>
    <desc>Created with Sketch.</desc>
    <defs></defs>
    <g id="Page-2" stroke="none" stroke-width="1" fill="none" fill-rule="evenodd">
        <g id="Desktop-HD" transform="translate(-435.000000, -325.000000)" fill="#000000">
            <g id="Header" transform="translate(435.000000, 325.000000)">
                <g id="Group">
                    <g id="Lunch-Box-5">
                        <path d="M6.28374365,60.4893893 L35.0842354,60.4893893 L35.0842354,66.2927142 L0,66.2927142 L0,4.03886532 L6.28374365,4.03886532 L6.28374365,60.4893893 Z M96.5252845,43.0794146 C96.5252845,45.658683 96.2198278,48.3991146 95.6089052,51.3007915 C94.9979826,54.2024685 93.8488836,56.8842812 92.1615736,59.3463101 C90.4742636,61.8083391 88.16152,63.8453444 85.2232733,65.4573871 C82.2850266,67.0694299 78.5177273,67.8754392 73.9212622,67.8754392 C69.266614,67.8754392 65.484769,67.0694299 62.5756139,65.4573871 C59.6664588,63.8453444 57.3682607,61.8083391 55.6809507,59.3463101 C53.9936407,56.8842812 52.8445417,54.2024685 52.2336191,51.3007915 C51.6226965,48.3991146 51.3172398,45.658683 51.3172398,43.0794146 L51.3172398,4.03886532 L57.6009835,4.03886532 L57.6009835,42.3759813 C57.6009835,45.3655879 57.8918946,47.9301629 58.4737257,50.0697832 C59.0555567,52.2094036 59.8264712,54.0119335 60.7864924,55.4774269 C61.7465136,56.9429203 62.8228849,58.1006427 64.0156385,58.9506289 C65.2083921,59.8006151 66.4011278,60.4600772 67.5938814,60.9290351 C68.786635,61.397993 69.935734,61.705742 71.041213,61.8522914 C72.1466919,61.9988407 73.1066987,62.0721143 73.9212622,62.0721143 C74.6776425,62.0721143 75.6231037,61.9988407 76.7576742,61.8522914 C77.8922447,61.705742 79.0558893,61.397993 80.2486429,60.9290351 C81.4413965,60.4600772 82.6341322,59.8006151 83.8268858,58.9506289 C85.0196394,58.1006427 86.0960107,56.9429203 87.0560319,55.4774269 C88.0160531,54.0119335 88.7869676,52.2094036 89.3687986,50.0697832 C89.9506297,47.9301629 90.2415408,45.3655879 90.2415408,42.3759813 L90.2415408,4.03886532 L96.5252845,4.03886532 L96.5252845,43.0794146 Z M165.646465,56.7963644 L165.821013,56.7963644 L165.821013,4.03886532 L172.104757,4.03886532 L172.104757,66.2927142 L164.250077,66.2927142 L127.420357,13.0076402 L127.245809,13.0076402 L127.245809,66.2927142 L120.962065,66.2927142 L120.962065,4.03886532 L128.816745,4.03886532 L165.646465,56.7963644 Z M248.469697,56.4446477 C247.422401,58.0273806 246.127847,59.5221614 244.585994,60.9290351 C243.044142,62.3359088 241.28413,63.5522501 239.305904,64.5780955 C237.327679,65.6039409 235.189482,66.4099501 232.891249,66.9961475 C230.593017,67.5823449 228.163909,67.8754392 225.603852,67.8754392 C221.007387,67.8754392 216.745539,67.0547752 212.818179,65.4134225 C208.89082,63.7720699 205.487159,61.5005892 202.607096,58.5989122 C199.727032,55.6972353 197.472471,52.2533774 195.843344,48.2672353 C194.214217,44.2810933 193.399666,39.9139884 193.399666,35.1657898 C193.399666,30.4175911 194.214217,26.0504862 195.843344,22.0643442 C197.472471,18.0782021 199.727032,14.6343442 202.607096,11.7326673 C205.487159,8.83099031 208.89082,6.55950959 212.818179,4.91815697 C216.745539,3.27680435 221.007387,2.45614035 225.603852,2.45614035 C229.443937,2.45614035 233.283964,3.21818549 237.124049,4.74229864 C240.964133,6.26641179 244.251429,8.78702265 246.986035,12.3042068 L241.48776,16.4368776 C240.847745,15.4403421 239.975012,14.4438215 238.869533,13.447286 C237.764054,12.4507505 236.498591,11.5714676 235.073105,10.809411 C233.647619,10.0473545 232.120335,9.43185646 230.491208,8.96289857 C228.862081,8.49394067 227.232979,8.25946525 225.603852,8.25946525 C221.647401,8.25946525 218.098285,8.99220096 214.956398,10.4576944 C211.81451,11.9231878 209.152673,13.8869195 206.970807,16.3489484 C204.78894,18.8109774 203.116201,21.6686467 201.952539,24.922042 C200.788877,28.1754374 200.207055,31.5899858 200.207055,35.1657898 C200.207055,38.7415937 200.788877,42.1561421 201.952539,45.4095375 C203.116201,48.6629329 204.78894,51.5206021 206.970807,53.9826311 C209.152673,56.44466 211.81451,58.4083917 214.956398,59.8738851 C218.098285,61.3393785 221.647401,62.0721143 225.603852,62.0721143 C227.232979,62.0721143 228.847536,61.9255671 230.447571,61.6324684 C232.047606,61.3393698 233.618527,60.8411095 235.160379,60.1376726 C236.702231,59.4342358 238.156787,58.4816794 239.52409,57.2799748 C240.891393,56.0782702 242.156856,54.5688346 243.320518,52.7516228 L248.469697,56.4446477 Z M267.757299,4.03886532 L274.041043,4.03886532 L274.041043,31.033119 L307.728891,31.033119 L307.728891,4.03886532 L314.012634,4.03886532 L314.012634,66.2927142 L307.728891,66.2927142 L307.728891,36.8364439 L274.041043,36.8364439 L274.041043,66.2927142 L267.757299,66.2927142 L267.757299,4.03886532 Z" id="LUNCH"></path>
                        <path d="M382.129733,61.7781742 L394.618154,61.7781742 C396.971057,61.7781742 399.173099,61.5317716 401.224348,61.0389589 C403.275596,60.5461462 405.055329,59.791538 406.5636,58.7751118 C408.071871,57.7586856 409.263388,56.4804718 410.138185,54.940432 C411.012982,53.4003923 411.450374,51.5523723 411.450374,49.3963167 C411.450374,45.0842055 410.09295,41.8809709 407.378063,39.7865168 C404.663175,37.6920628 400.681399,36.6448515 395.432616,36.6448515 L382.129733,36.6448515 L382.129733,61.7781742 Z M382.129733,31.1007362 L395.251625,31.1007362 C396.820227,31.1007362 398.373722,30.900534 399.912159,30.5001237 C401.450595,30.0997133 402.838184,29.4375062 404.074966,28.5134823 C405.311748,27.5894585 406.322274,26.4036457 407.106575,24.9560083 C407.890876,23.508371 408.283021,21.7373519 408.283021,19.6428978 C408.283021,18.9652804 408.147278,18.01047 407.87579,16.7784383 C407.604301,15.5464065 407.001001,14.3143932 406.065873,13.0823614 C405.130745,11.8503296 403.75824,10.7877181 401.948314,9.89449507 C400.138389,9.00127202 397.695027,8.5546672 394.618154,8.5546672 L382.129733,8.5546672 L382.129733,31.1007362 Z M375.614035,2.45614035 L394.70865,2.45614035 C397.363207,2.45614035 399.927229,2.73334334 402.400793,3.28775765 C404.874358,3.84217195 407.0764,4.76618193 409.006987,6.05981531 C410.937574,7.35344868 412.475987,9.04746698 413.622273,11.141921 C414.768559,13.2363751 415.341694,15.823603 415.341694,18.9036825 C415.341694,22.4765746 414.361332,25.5412077 412.40058,28.0976737 C410.439828,30.6541397 407.649568,32.3635581 404.029718,33.2259804 C408.554531,33.7803937 412.098914,35.3974112 414.662975,38.2618851 C417.227036,41.126359 418.509047,44.9610004 418.509047,49.7659244 C418.509047,50.8131514 418.252644,52.353168 417.739832,54.3860205 C417.22702,56.4188729 416.156164,58.4362947 414.527231,60.4383464 C412.898299,62.440398 410.545431,64.1806168 407.468558,65.659055 C404.391686,67.1374931 400.28925,67.8767011 395.161129,67.8767011 L375.614035,67.8767011 L375.614035,2.45614035 Z M541.707551,28.6058843 L559.625721,2.45614035 L567.770343,2.45614035 L546.05135,33.5031861 L569.580259,67.8767011 L560.983158,67.8767011 L541.436064,38.2156841 L521.798474,67.8767011 L513.653852,67.8767011 L537.092265,33.5031861 L515.463768,2.45614035 L524.241861,2.45614035 L541.707551,28.6058843 Z" id="BOX"></path>
                        <g id="restaurant" transform="translate(433.333333, 0.000000)">
                            <g id="Capa_1">
                                <g id="Group">
                                    <path d="M44.1912445,15.4521695 L42.84957,15.4521695 C42.4205906,15.4521695 41.9992488,15.6278347 41.69629,15.9333393 C41.4022418,16.2273875 41.2431248,16.6118142 41.2469436,16.952961 L38.6119662,36.4517939 C38.5126772,37.1799132 38.8614616,38.0378721 39.4482851,38.4935832 C39.4482851,38.4935832 40.5290077,39.3031704 41.080189,39.6875971 L41.2138473,39.7448792 L41.239306,54.2219798 C41.239306,55.1079432 41.9597877,55.8322437 42.84957,55.8322437 L44.1912445,55.8322437 C45.0784808,55.8322437 45.8027814,55.1104891 45.8027814,54.2219798 L45.8027814,17.0598876 C45.7989626,16.1739242 45.0784808,15.4521695 44.1912445,15.4521695 Z M40.4297187,37.2181013 C40.3062439,37.1213582 40.186588,36.8222182 40.2044091,36.668193 L42.7426434,17.8592914 C42.8024713,17.4175826 43.1487099,17.0598876 43.5191343,17.0598876 C43.8895586,17.0598876 44.1886986,17.4201285 44.1886986,17.8656561 L44.1912445,53.4210526 C44.1912445,53.4210526 44.1925214,54.2219798 43.5121352,54.2219798 C42.8317489,54.2219798 42.8563047,53.7838536 42.8317489,53.4210526 C42.807193,53.0582517 42.8317489,44.1696046 42.8317489,44.1696046 L42.8228383,39.3820924 C42.8228383,39.151691 42.6955447,38.8983768 42.5122419,38.7634456 L40.4297187,37.2181013 Z" id="Shape"></path>
                                    <path d="M32.275291,17.0598876 C31.4033299,17.0598876 30.6904858,17.7816423 30.6904858,18.6701516 L30.6904858,25.7311273 C30.6904858,26.1766549 30.4435362,26.5356228 30.1380316,26.5356228 C29.8337999,26.5356228 29.5855774,26.1766549 29.5855774,25.7324002 C29.5843044,23.7147968 29.5843044,18.6052319 29.5843044,18.6052319 C29.5843044,17.6810804 28.6474236,17.0598876 27.7219991,17.0598876 C26.8767697,17.0598876 25.9067925,17.7803694 25.9067925,18.7045209 L25.9067925,25.7476755 C25.9067925,26.1932031 25.6598429,26.552171 25.3543383,26.552171 C25.0501066,26.552171 24.803157,26.1932031 24.803157,25.7476755 L24.803157,18.6701516 C24.803157,17.7829152 24.1030422,17.0598876 23.2425375,17.0598876 C22.7410008,17.0598876 20.8786955,17.4634083 20.8786955,18.6701516 L20.8786955,27.4915977 C20.8786955,27.9371253 20.9767115,28.8485475 21.3420442,29.4442815 C21.881769,30.3200614 23.9473684,31.9298246 25.6738452,31.9298246 C25.6738452,31.9298246 25.6738452,32.7284562 25.6738452,33.1599815 L25.6738452,54.2207068 C25.6738452,55.1066702 26.3955999,55.8309708 27.2841092,55.8309708 L28.6257837,55.8309708 C29.514293,55.8309708 30.2373206,55.1092161 30.2373206,54.2207068 L30.2373206,46.7154765 L30.2398664,44.1696046 L30.2373206,33.1599815 C30.2373206,32.7259104 30.2373206,31.9298246 30.2373206,31.9298246 C31.3132436,31.8160324 33.7518967,30.5008183 34.303078,29.4162769 C34.6454978,28.7428938 34.6645918,27.6939945 34.6645918,27.4915977 L34.6645918,18.6701516 C34.6658647,17.4646812 32.7819195,17.0598876 32.275291,17.0598876 Z M33.0556008,27.4903248 C33.0556008,27.9485817 32.9741329,28.4844878 32.8697521,28.6856117 C32.5645368,29.2846536 30.9253505,30.3481653 28.6308754,30.5662265 L28.6308754,53.4162113 C28.6308754,53.4162113 28.6626988,54.2219798 27.9753134,54.2219798 C27.287928,54.2219798 27.287928,53.4162113 27.287928,53.4162113 L27.287928,30.5662265 C24.9298576,30.3353161 23.1020599,29.225217 22.716815,28.599052 C22.5997049,28.4081116 22.4915053,27.8785703 22.4915053,27.4903248 L22.4915053,18.9030989 C22.6951751,18.7923534 23.073237,18.6714245 23.1967118,18.6688787 L23.1967118,26.5343499 C23.1967118,27.4215863 23.9171936,28.1560703 24.7789712,28.1547974 L25.896609,28.1547974 C26.7838453,28.1547974 27.506873,27.4559555 27.506873,26.5687192 L27.506873,18.78217 C27.5590633,18.7299796 27.6761734,18.6714245 27.7741895,18.6688787 C27.8416551,18.6688787 27.923123,18.6956103 27.9753134,18.7248878 L27.9753134,26.4681572 C27.9753134,27.625256 28.6843387,28.1433409 29.3844535,28.1433409 L30.6917587,28.1433409 C31.5789951,28.1433409 32.3020227,27.4215863 32.3020227,26.533077 L32.276564,18.6676057 C32.4407727,18.6688787 32.8455663,18.7923534 33.0556008,18.9056447 L33.0556008,27.4903248 Z" id="Shape"></path>
                                    <path d="M34.8784451,0 C15.6469287,0 0,15.6469287 0,34.8784451 C0,54.1099614 15.6469287,69.7568901 34.8784451,69.7568901 C54.1099614,69.7568901 69.7568901,54.1099614 69.7568901,34.8784451 C69.7568901,15.6469287 54.1099614,0 34.8784451,0 Z M34.8784451,67.2122911 C17.0509771,67.2122911 2.5458719,52.707186 2.5458719,34.879718 C2.5458719,17.05225 17.0509771,2.54714484 34.8784451,2.54714484 C52.705913,2.54714484 67.2110182,17.05225 67.2110182,34.879718 C67.2110182,52.707186 52.705913,67.2122911 34.8784451,67.2122911 Z" id="Shape"></path>
                                    <path d="M34.8771721,6.777111 C19.3817228,6.777111 6.77456513,19.3842687 6.77456513,34.879718 C6.77456513,50.3764403 19.3804499,62.982325 34.8771721,62.982325 C50.3738944,62.982325 62.9797791,50.3764403 62.9797791,34.879718 C62.9797791,19.3842687 50.3726214,6.777111 34.8771721,6.777111 Z M34.8771721,61.709389 C20.0831105,61.709389 8.04750108,49.6737796 8.04750108,34.879718 C8.04750108,20.0856564 20.0831105,8.05004695 34.8771721,8.05004695 C49.6712337,8.05004695 61.7068431,20.0856564 61.7068431,34.879718 C61.7068431,49.6737796 49.6699608,61.709389 34.8771721,61.709389 Z" id="Shape"></path>
                                </g>
                            </g>
                        </g>
                    </g>
                </g>
            </g>
        </g>
    </g>
</svg>
